<svg id="cpu" xmlns="http://www.w3.org/2000/svg" width="66.307" height="66.307" viewBox="0 0 66.307 66.307">
  <defs>
    <style>
      .cls-1 {
        fill: #f72840;
      }
    </style>
  </defs>
  <path id="Path_14" data-name="Path 14" class="cls-1" d="M144.155,136.5a.993.993,0,0,0-.993.993v5.022a.646.646,0,0,1-.646.646H109.03a.646.646,0,0,1-.646-.646V109.03a.646.646,0,0,1,.646-.646h10.261a.993.993,0,0,0,0-1.986H109.03a2.634,2.634,0,0,0-2.631,2.631v33.487a2.634,2.634,0,0,0,2.631,2.631h33.487a2.634,2.634,0,0,0,2.631-2.631v-5.022A.993.993,0,0,0,144.155,136.5Zm0,0" transform="translate(-92.62 -92.62)"/>
  <path id="Path_15" data-name="Path 15" class="cls-1" d="M249.192,106.4H229.938a.993.993,0,0,0,0,1.986h19.255a.646.646,0,0,1,.646.646v24.493a.993.993,0,1,0,1.985,0V109.029a2.633,2.633,0,0,0-2.631-2.631Zm0,0" transform="translate(-199.295 -92.619)"/>
  <path id="Path_16" data-name="Path 16" class="cls-1" d="M65.315,23.787a.993.993,0,0,0,0-1.986H58.109V16.88h7.206a.993.993,0,0,0,0-1.985H58.109V13.063A4.869,4.869,0,0,0,53.245,8.2H51.413V.993a.993.993,0,0,0-1.985,0V8.2H44.506V.993a.993.993,0,0,0-1.986,0V8.2H37.6V.993a.993.993,0,0,0-1.985,0V8.2H30.693V.993a.993.993,0,0,0-1.986,0V8.2H23.786V.993a.993.993,0,0,0-1.985,0V8.2H16.88V.993a.993.993,0,1,0-1.985,0V8.2H13.063A4.869,4.869,0,0,0,8.2,13.063v1.832H.993a.993.993,0,1,0,0,1.985H8.2V21.8H.993a.993.993,0,0,0,0,1.986H8.2v4.921H.993a.993.993,0,0,0,0,1.985H8.2v4.921H.993a.993.993,0,0,0,0,1.986H8.2v4.921H.993a.993.993,0,1,0,0,1.985H8.2v4.921H.993a.993.993,0,0,0,0,1.986H8.2v1.832a4.869,4.869,0,0,0,4.864,4.864h1.832v7.206a.993.993,0,0,0,1.985,0V58.109H21.8v7.206a.993.993,0,0,0,1.986,0V58.109h4.921v7.206a.993.993,0,0,0,1.985,0V58.109h4.921v7.206a.993.993,0,0,0,1.986,0V58.109h4.921v7.206a.993.993,0,0,0,1.985,0V58.109h4.922v7.206a.993.993,0,0,0,1.985,0V58.109h1.832a4.869,4.869,0,0,0,4.864-4.864V51.413h7.206a.993.993,0,0,0,0-1.985H58.109V44.506h7.206a.993.993,0,0,0,0-1.986H58.109V37.6h7.206a.993.993,0,0,0,0-1.985H58.109V30.693h7.206a.993.993,0,0,0,0-1.986H58.109V23.786h7.206ZM56.124,53.245a2.883,2.883,0,0,1-2.879,2.879H13.063a2.883,2.883,0,0,1-2.879-2.879V13.063a2.883,2.883,0,0,1,2.879-2.879H53.245a2.883,2.883,0,0,1,2.879,2.879Zm0,0" transform="translate(0 0)"/>
  <path id="Path_17" data-name="Path 17" class="cls-1" d="M181.554,284.105H157.863a.993.993,0,1,0,0,1.985h23.691a.993.993,0,0,0,0-1.985Zm0,0" transform="translate(-136.555 -247.312)"/>
  <path id="Path_18" data-name="Path 18" class="cls-1" d="M314.995,333.156h-3.838a.993.993,0,0,0,0,1.986h3.838a.993.993,0,0,0,0-1.986Zm0,0" transform="translate(-269.996 -290.01)"/>
  <path id="Path_19" data-name="Path 19" class="cls-1" d="M157.863,333.156a.993.993,0,0,0,0,1.986h15.882a.993.993,0,1,0,0-1.986Zm0,0" transform="translate(-136.555 -290.01)"/>
</svg>
