<svg id="graphic-card" xmlns="http://www.w3.org/2000/svg" width="70.444" height="64.174" viewBox="0 0 70.444 64.174">
  <defs>
    <style>
      .cls-1 {
        fill: #f72840;
      }
    </style>
  </defs>
  <path id="Path_20" data-name="Path 20" class="cls-1" d="M67.815,11.791H16.583V4.829A4.835,4.835,0,0,0,11.753,0H9.238a1.044,1.044,0,0,0,0,2.089h2.516a2.744,2.744,0,0,1,2.741,2.741V60.966a1.121,1.121,0,0,1-1.175,1.118A1.164,1.164,0,0,1,12.256,60.9V6.166a1.842,1.842,0,0,0-1.841-1.839H3.269A1.165,1.165,0,0,1,2.09,3.263,1.12,1.12,0,0,1,3.208,2.088H5.061A1.044,1.044,0,1,0,5.061,0H3.208a3.208,3.208,0,1,0,.061,6.415h6.9v6.739H6.311a1.044,1.044,0,1,0,0,2.088h3.856v3.365H6.311A1.044,1.044,0,0,0,5.267,19.65V44.523a1.044,1.044,0,0,0,1.044,1.044h3.856v3.365H6.311a1.044,1.044,0,1,0,0,2.088h3.856V60.9a3.208,3.208,0,1,0,6.416.061V54h5.261v5.044a1.736,1.736,0,0,0,1.733,1.733H59.84a1.736,1.736,0,0,0,1.735-1.733V54h6.24a2.632,2.632,0,0,0,2.63-2.63V14.421a2.632,2.632,0,0,0-2.63-2.63ZM10.167,43.479H7.356V20.695h2.812ZM59.487,58.684H56.6V56.33a1.044,1.044,0,0,0-2.089,0v2.354H51.985V56.33a1.044,1.044,0,0,0-2.089,0v2.354H47.37V56.33a1.044,1.044,0,0,0-2.089,0v2.354H42.753V56.33a1.044,1.044,0,1,0-2.088,0v2.354H38.138V56.33a1.044,1.044,0,1,0-2.088,0v2.354H33.523V56.33a1.044,1.044,0,1,0-2.088,0v2.354H28.908V56.33a1.044,1.044,0,1,0-2.088,0v2.354H23.932V54H59.487Zm8.869-7.318a.542.542,0,0,1-.541.541H34.951a1.039,1.039,0,0,0-.046-.178L31.221,41.3a1.044,1.044,0,1,0-1.968.694l3.5,9.913H16.583V24.131h.928a7.691,7.691,0,0,1,7.241,5.12l3.11,8.806a1.044,1.044,0,0,0,1.969-.7l-3.11-8.806a9.783,9.783,0,0,0-9.21-6.513h-.928V13.88H67.815a.542.542,0,0,1,.541.541Zm0,0" transform="translate(-0.001 0)"/>
  <path id="Path_21" data-name="Path 21" class="cls-1" d="M265.118,125.579a1.044,1.044,0,0,0-.528,1.379,14.881,14.881,0,1,1-2.035-3.314,1.044,1.044,0,1,0,1.621-1.316,16.864,16.864,0,1,0,2.321,3.78,1.044,1.044,0,0,0-1.379-.528Zm0,0" transform="translate(-201.893 -100.084)"/>
  <path id="Path_22" data-name="Path 22" class="cls-1" d="M282.671,152.738a11.879,11.879,0,1,0,11.878,11.878A11.892,11.892,0,0,0,282.671,152.738Zm.132,2.091-.408.707a2.925,2.925,0,0,0,1.071,3.993.837.837,0,0,1,.306,1.142l-.478.827a3.137,3.137,0,0,0-1.2-.01l-.486-.842a2.927,2.927,0,0,0-3.994-1.069.834.834,0,0,1-1.14-.306l-.841-1.455A9.756,9.756,0,0,1,282.8,154.829Zm1.065,9.8a1.192,1.192,0,1,1-1.192-1.192A1.193,1.193,0,0,1,283.869,164.625Zm-9.606-5.015a3.479,3.479,0,0,0,2.183,2.068,2.907,2.907,0,0,0,2.218-.292.837.837,0,0,1,1.141.3l.478.829a3.159,3.159,0,0,0-.607,1.03H278.7a2.927,2.927,0,0,0-2.924,2.923.836.836,0,0,1-.835.835H273.26A9.751,9.751,0,0,1,274.262,159.61Zm6.875,13.043-.842,1.461a9.829,9.829,0,0,1-6.165-4.718h.815a2.927,2.927,0,0,0,2.923-2.924.836.836,0,0,1,.836-.835h.954a3.19,3.19,0,0,0,.591,1.038l-.487.844a2.922,2.922,0,0,0,1.071,3.993A.837.837,0,0,1,281.137,172.653Zm1.4,1.75.408-.706a2.929,2.929,0,0,0-1.071-3.994.833.833,0,0,1-.306-1.14l.478-.827a3.156,3.156,0,0,0,1.2.01c.527.912.928,1.846,2.26,2.2a2.9,2.9,0,0,0,2.219-.292.834.834,0,0,1,1.14.306l.841,1.453A9.742,9.742,0,0,1,282.539,174.4Zm9.922-9.787a9.738,9.738,0,0,1-1.381,5.008,3.478,3.478,0,0,0-2.183-2.068,2.909,2.909,0,0,0-2.218.292.834.834,0,0,1-1.141-.306l-.478-.827a3.164,3.164,0,0,0,.607-1.03h.972a2.927,2.927,0,0,0,2.923-2.924.836.836,0,0,1,.835-.835h1.685A9.753,9.753,0,0,1,292.461,164.616Zm-2.063-4.778a2.927,2.927,0,0,0-2.923,2.924.836.836,0,0,1-.835.835h-.955a3.191,3.191,0,0,0-.591-1.038l.487-.844a2.928,2.928,0,0,0-1.071-3.994.834.834,0,0,1-.3-1.14l.842-1.46a9.828,9.828,0,0,1,6.165,4.718Zm0,0" transform="translate(-233.536 -131.723)"/>
</svg>
