<svg id="ram" xmlns="http://www.w3.org/2000/svg" width="67.199" height="31.789" viewBox="0 0 67.199 31.789">
  <defs>
    <style>
      .cls-1 {
        fill: #f72840;
      }
    </style>
  </defs>
  <path id="Path_23" data-name="Path 23" class="cls-1" d="M65.317,7.41A1.884,1.884,0,0,0,67.2,5.528V3.043A3.047,3.047,0,0,0,64.156,0H13.024a1.006,1.006,0,1,0,0,2.012H64.156a1.033,1.033,0,0,1,1.032,1.032V5.4c-2.084,0-3.25-.211-4.4.943a3.228,3.228,0,0,0,2.334,5.5h2.071v8.458a1.033,1.033,0,0,1-1.032,1.032H3.043a1.033,1.033,0,0,1-1.032-1.032V11.836H4.139a3.217,3.217,0,0,0,3.219-3.22A3.258,3.258,0,0,0,4.081,5.4H2.012V3.044A1.033,1.033,0,0,1,3.043,2.012H9A1.006,1.006,0,1,0,9,0H3.043A3.047,3.047,0,0,0,0,3.044V5.528A1.884,1.884,0,0,0,1.882,7.41h2.2a1.213,1.213,0,0,1,.912,2.061c-.457.457-.755.353-3.112.353A1.884,1.884,0,0,0,0,11.706v8.589a3.047,3.047,0,0,0,3.043,3.043h.478v7.445a1.006,1.006,0,0,0,1.006,1.006H31.386a1.006,1.006,0,0,0,1.006-1.006V27.094a1.207,1.207,0,0,1,2.415,0v3.689a1.006,1.006,0,0,0,1.006,1.006H62.672a1.006,1.006,0,0,0,1.006-1.006V23.338h.478A3.047,3.047,0,0,0,67.2,20.295V11.706a1.884,1.884,0,0,0-1.882-1.882h-2.2a1.214,1.214,0,0,1-.911-2.061c.456-.456.753-.353,3.112-.353ZM61.666,29.777H59.152V25.594a1.006,1.006,0,0,0-2.012,0v4.183H54.67V25.594a1.006,1.006,0,0,0-2.012,0v4.183h-2.47V25.594a1.006,1.006,0,0,0-2.012,0v4.183h-2.47V25.594a1.006,1.006,0,0,0-2.012,0v4.183H41.223V25.594a1.006,1.006,0,1,0-2.012,0v4.183H36.819V27.094a3.219,3.219,0,1,0-6.438,0v2.683H27.988V25.594a1.006,1.006,0,1,0-2.012,0v4.183H23.506V25.594a1.006,1.006,0,0,0-2.012,0v4.183H19.023V25.594a1.006,1.006,0,0,0-2.012,0v4.183H14.541V25.594a1.006,1.006,0,0,0-2.012,0v4.183h-2.47V25.594a1.006,1.006,0,0,0-2.012,0v4.183H5.533V23.338H61.666Zm0,0" transform="translate(0 0)"/>
  <path id="Path_24" data-name="Path 24" class="cls-1" d="M98.977,45.1a2.127,2.127,0,0,0,2.125-2.125V31.4a2.127,2.127,0,0,0-2.125-2.125H94.946A2.128,2.128,0,0,0,92.821,31.4V42.977A2.128,2.128,0,0,0,94.946,45.1Zm-4.144-2.125c0-12.279-.055-11.691.113-11.691,4.325,0,4.144-.049,4.144.112,0,12.279.055,11.691-.113,11.691C94.653,43.089,94.833,43.138,94.833,42.977Zm0,0" transform="translate(-80.638 -25.431)"/>
  <path id="Path_25" data-name="Path 25" class="cls-1" d="M186.73,45.1a2.127,2.127,0,0,0,2.125-2.125V31.4a2.127,2.127,0,0,0-2.125-2.125H182.7a2.128,2.128,0,0,0-2.125,2.125V42.977A2.128,2.128,0,0,0,182.7,45.1Zm-4.144-2.125c0-12.279-.055-11.691.113-11.691h4.031a.113.113,0,0,1,.113.112c0,12.279.055,11.691-.113,11.691C182.406,43.089,182.586,43.138,182.586,42.977Zm0,0" transform="translate(-156.874 -25.431)"/>
  <path id="Path_26" data-name="Path 26" class="cls-1" d="M274.488,45.1a2.128,2.128,0,0,0,2.125-2.125V31.4a2.128,2.128,0,0,0-2.125-2.125h-4.031a2.127,2.127,0,0,0-2.125,2.125V42.977a2.127,2.127,0,0,0,2.125,2.125Zm-4.144-2.125c0-12.279-.055-11.691.113-11.691,4.324,0,4.144-.049,4.144.112,0,12.279.055,11.691-.113,11.691C270.163,43.089,270.343,43.138,270.343,42.977Zm0,0" transform="translate(-233.113 -25.431)"/>
  <path id="Path_27" data-name="Path 27" class="cls-1" d="M362.241,45.1a2.128,2.128,0,0,0,2.125-2.125V31.4a2.128,2.128,0,0,0-2.125-2.125H358.21a2.127,2.127,0,0,0-2.125,2.125V42.977A2.127,2.127,0,0,0,358.21,45.1ZM358.1,42.977c0-12.279-.055-11.691.113-11.691h4.031a.112.112,0,0,1,.113.112c0,12.279.055,11.691-.113,11.691C357.917,43.089,358.1,43.138,358.1,42.977Zm0,0" transform="translate(-309.35 -25.431)"/>
</svg>
